<svg width="22" height="24" viewBox="0 0 22 24" fill="none" xmlns="http://www.w3.org/2000/svg">
<path d="M20 7.63556C20.5304 7.63556 21.0391 7.86544 21.4142 8.27463C21.7893 8.68382 22 9.2388 22 9.81749V14.1813C22 14.76 21.7893 15.315 21.4142 15.7242C21.0391 16.1334 20.5304 16.3633 20 16.3633H18.938C18.6944 18.4725 17.7535 20.4122 16.292 21.8183C14.8304 23.2244 12.9487 24.0002 11 24V21.8181C12.5913 21.8181 14.1174 21.1284 15.2426 19.9009C16.3679 18.6733 17 17.0083 17 15.2723V8.72653C17 6.99048 16.3679 5.32553 15.2426 4.09796C14.1174 2.87039 12.5913 2.18075 11 2.18075C9.4087 2.18075 7.88258 2.87039 6.75736 4.09796C5.63214 5.32553 5 6.99048 5 8.72653V16.3633H2C1.46957 16.3633 0.960859 16.1334 0.585786 15.7242C0.210714 15.315 0 14.76 0 14.1813V9.81749C0 9.2388 0.210714 8.68382 0.585786 8.27463C0.960859 7.86544 1.46957 7.63556 2 7.63556H3.062C3.30603 5.52662 4.24708 3.5873 5.70857 2.18149C7.17007 0.775677 9.05155 0 11 0C12.9484 0 14.8299 0.775677 16.2914 2.18149C17.7529 3.5873 18.694 5.52662 18.938 7.63556H20ZM6.76 16.1287L7.82 14.2784C8.77303 14.9299 9.87535 15.2744 11 15.2723C12.1246 15.2744 13.227 14.9299 14.18 14.2784L15.24 16.1287C13.9693 16.9974 12.4996 17.4569 11 17.4542C9.50044 17.4569 8.03067 16.9974 6.76 16.1287Z" fill="white"/>
</svg>
