<svg width="27" height="19" viewBox="0 0 27 19" fill="none" xmlns="http://www.w3.org/2000/svg">
<path d="M1.91407 18.316C1.49875 18.316 1.15085 18.1753 0.870388 17.8938C0.589923 17.6124 0.449202 17.2645 0.448224 16.8501C0.447247 16.4358 0.587969 16.0879 0.870388 15.8065C1.15281 15.525 1.5007 15.3843 1.91407 15.3843H25.3676C25.7829 15.3843 26.1313 15.525 26.4128 15.8065C26.6942 16.0879 26.8344 16.4358 26.8335 16.8501C26.8325 17.2645 26.6918 17.6129 26.4113 17.8953C26.1308 18.1777 25.7829 18.3179 25.3676 18.316H1.91407ZM1.91407 10.9868C1.49875 10.9868 1.15085 10.846 0.870388 10.5646C0.589923 10.2831 0.449202 9.93525 0.448224 9.52091C0.447247 9.10656 0.587969 8.75867 0.870388 8.47723C1.15281 8.19578 1.5007 8.05506 1.91407 8.05506H25.3676C25.7829 8.05506 26.1313 8.19578 26.4128 8.47723C26.6942 8.75867 26.8344 9.10656 26.8335 9.52091C26.8325 9.93525 26.6918 10.2836 26.4113 10.5661C26.1308 10.8485 25.7829 10.9887 25.3676 10.9868H1.91407ZM1.91407 3.65752C1.49875 3.65752 1.15085 3.5168 0.870388 3.23536C0.589923 2.95392 0.449202 2.60602 0.448224 2.19168C0.447247 1.77733 0.587969 1.42944 0.870388 1.14799C1.15281 0.866551 1.5007 0.72583 1.91407 0.72583H25.3676C25.7829 0.72583 26.1313 0.866551 26.4128 1.14799C26.6942 1.42944 26.8344 1.77733 26.8335 2.19168C26.8325 2.60602 26.6918 2.9544 26.4113 3.23682C26.1308 3.51924 25.7829 3.65948 25.3676 3.65752H1.91407Z" fill="white"/>
</svg>
