<svg width="14" height="18" viewBox="0 0 14 18" fill="none" xmlns="http://www.w3.org/2000/svg">
<path d="M6.846 15.25H7.846V14.25H9.346C9.48867 14.25 9.60767 14.2023 9.703 14.107C9.79833 14.0117 9.846 13.8927 9.846 13.75V10.75C9.846 10.608 9.79833 10.489 9.703 10.393C9.60767 10.2977 9.48867 10.25 9.346 10.25H5.846V8.25H9.846V7.25H7.846V6.25H6.846V7.25H5.346C5.204 7.25 5.08533 7.29767 4.99 7.393C4.89467 7.48833 4.84667 7.60733 4.846 7.75V10.75C4.846 10.8927 4.894 11.0117 4.99 11.107C5.086 11.2023 5.20467 11.25 5.346 11.25H8.846V13.25H4.846V14.25H6.846V15.25ZM1.616 18C1.15533 18 0.771 17.846 0.463 17.538C0.155 17.23 0.000666667 16.8457 0 16.385V1.615C0 1.155 0.154333 0.771 0.463 0.463C0.771666 0.155 1.156 0.000666667 1.616 0H9.5L14 4.5V16.385C14 16.845 13.846 17.2293 13.538 17.538C13.23 17.8467 12.8453 18.0007 12.384 18H1.616ZM9 4.77V1H1.616C1.462 1 1.32067 1.064 1.192 1.192C1.06333 1.32 0.999333 1.461 1 1.615V16.385C1 16.5383 1.064 16.6793 1.192 16.808C1.32 16.9367 1.461 17.0007 1.615 17H12.385C12.5383 17 12.6793 16.936 12.808 16.808C12.9367 16.68 13.0007 16.5387 13 16.384V4.77H9Z" fill="white"/>
</svg>
